<svg width="27" height="23" viewBox="0 0 27 23" fill="none" xmlns="http://www.w3.org/2000/svg">
<path id="Vector" d="M24.4171 8.56667C25.0671 8.56667 25.7004 8.61667 26.3171 8.7C25.1837 3.75 19.9837 0 13.7337 0C6.65039 0 0.900391 4.8 0.900391 10.7167C0.900391 14.1333 2.81706 17.15 5.80039 19.1167L4.11706 22.5L8.71706 20.5167C9.70039 20.8667 10.7337 21.15 11.8337 21.3C11.6837 20.65 11.6004 19.9833 11.6004 19.2833C11.5837 13.3833 17.3337 8.56667 24.4171 8.56667ZM18.0004 4.81667C18.2105 4.81667 18.4186 4.85805 18.6127 4.93846C18.8068 5.01887 18.9832 5.13672 19.1318 5.2853C19.2803 5.43387 19.3982 5.61025 19.4786 5.80437C19.559 5.99849 19.6004 6.20655 19.6004 6.41667C19.6004 6.62678 19.559 6.83484 19.4786 7.02896C19.3982 7.22308 19.2803 7.39946 19.1318 7.54804C18.9832 7.69661 18.8068 7.81447 18.6127 7.89487C18.4186 7.97528 18.2105 8.01667 18.0004 8.01667C17.576 8.01667 17.1691 7.8481 16.869 7.54804C16.569 7.24798 16.4004 6.84101 16.4004 6.41667C16.4004 5.99232 16.569 5.58535 16.869 5.2853C17.1691 4.98524 17.576 4.81667 18.0004 4.81667ZM9.45039 8.03333C9.02604 8.03333 8.61908 7.86476 8.31902 7.5647C8.01896 7.26465 7.85039 6.85768 7.85039 6.43333C7.85039 6.00899 8.01896 5.60202 8.31902 5.30196C8.61908 5.0019 9.02604 4.83333 9.45039 4.83333C9.87474 4.83333 10.2817 5.0019 10.5818 5.30196C10.8818 5.60202 11.0504 6.00899 11.0504 6.43333C11.0504 6.85768 10.8818 7.26465 10.5818 7.5647C10.2817 7.86476 9.87474 8.03333 9.45039 8.03333Z" fill="white"/>
</svg>
