<svg width="34" height="24" viewBox="0 0 34 24" fill="none" xmlns="http://www.w3.org/2000/svg">
<path id="Vector" d="M13.6673 16.9987L22.3173 11.9987L13.6673 6.9987V16.9987ZM32.934 3.9487C33.1507 4.73203 33.3007 5.78203 33.4007 7.11536C33.5173 8.4487 33.5673 9.5987 33.5673 10.5987L33.6673 11.9987C33.6673 15.6487 33.4007 18.332 32.934 20.0487C32.5173 21.5487 31.5506 22.5154 30.0506 22.932C29.2673 23.1487 27.834 23.2987 25.634 23.3987C23.4673 23.5154 21.484 23.5654 19.6507 23.5654L17.0007 23.6654C10.0173 23.6654 5.66732 23.3987 3.95065 22.932C2.45065 22.5154 1.48398 21.5487 1.06732 20.0487C0.850651 19.2654 0.700651 18.2154 0.600651 16.882C0.483985 15.5487 0.433984 14.3987 0.433984 13.3987L0.333984 11.9987C0.333984 8.3487 0.600651 5.66536 1.06732 3.9487C1.48398 2.4487 2.45065 1.48203 3.95065 1.06536C4.73398 0.848698 6.16732 0.698698 8.36732 0.598698C10.534 0.482031 12.5173 0.432031 14.3507 0.432031L17.0007 0.332031C23.984 0.332031 28.334 0.598698 30.0506 1.06536C31.5506 1.48203 32.5173 2.4487 32.934 3.9487Z" fill="white"/>
</svg>
